<svg width="62" height="65" viewBox="0 0 62 65" fill="none" xmlns="http://www.w3.org/2000/svg">
<path fill-rule="evenodd" clip-rule="evenodd" d="M29.5 0C13.2076 0 0 13.2076 0 29.5C0 45.7924 13.2076 59 29.5 59C45.7924 59 59 45.7924 59 29.5C59 13.2076 45.7924 0 29.5 0ZM6 29.5C6 16.5213 16.5213 6 29.5 6C42.4787 6 53 16.5213 53 29.5C53 42.4787 42.4787 53 29.5 53C16.5213 53 6 42.4787 6 29.5ZM55.5217 54.2787C54.3501 53.1071 52.4506 53.1071 51.2791 54.2787C50.1075 55.4503 50.1075 57.3498 51.2791 58.5213L56.8791 64.1213C58.0506 65.2929 59.9501 65.2929 61.1217 64.1213C62.2933 62.9498 62.2933 61.0503 61.1217 59.8787L55.5217 54.2787Z" fill="white"/>
</svg>
