<svg width="180" height="180" viewBox="0 0 180 180" fill="none" xmlns="http://www.w3.org/2000/svg">
<path fill-rule="evenodd" clip-rule="evenodd" d="M179.006 90C179.006 139.156 139.156 179.006 90 179.006C40.8436 179.006 0.994475 139.156 0.994475 90C0.994475 40.8436 40.8436 0.994475 90 0.994475C139.156 0.994475 179.006 40.8436 179.006 90ZM180 90C180 139.706 139.706 180 90 180C40.2944 180 0 139.706 0 90C0 40.2944 40.2944 0 90 0C139.706 0 180 40.2944 180 90ZM83.1674 55.1887V60.0282C78.8118 57.4471 72.4459 56.4792 64.7398 56.4792C57.0337 56.4792 50.6678 57.7698 46.3122 60.3509V55.1887C46.3122 49.3812 55.6935 46.8001 64.7398 46.8001C73.786 46.8001 83.1674 49.3812 83.1674 55.1887ZM96.5693 70.9982C96.5693 65.1908 105.951 62.6097 114.997 62.6097C124.043 62.6097 133.089 64.8681 133.089 70.6756C133.089 76.4831 123.708 79.0642 114.662 79.0642C112.316 79.0642 109.971 78.7416 107.626 78.4189C114.997 83.9038 119.688 92.2924 119.688 101.649C119.688 110.037 116.002 117.781 109.971 122.943L115.667 128.428C117.007 129.718 117.007 131.654 115.667 132.945C114.997 133.59 113.992 133.913 113.322 133.913C112.652 133.913 111.646 133.59 110.976 132.945L104.61 126.815C100.255 129.396 95.2291 130.686 89.8683 130.686C84.5076 130.686 79.4818 129.073 75.1262 126.815L68.7603 132.945C68.0902 133.59 67.4202 133.913 66.415 133.913C65.4099 133.913 64.7398 133.59 63.7346 132.945C62.3944 131.654 62.3944 129.718 63.7346 128.428L69.4304 122.943C63.3996 117.781 59.7141 110.037 59.7141 101.649C59.7141 92.2924 64.4047 83.9038 71.7758 78.4189C69.4304 78.7416 67.0851 79.0642 64.7398 79.0642C55.6935 79.0642 46.3122 76.1605 46.3122 70.6756C46.3122 65.1908 55.6935 62.287 64.7398 62.287C73.786 62.287 83.1674 64.8681 83.1674 70.6756C83.1674 71.9662 82.8323 72.6114 82.1622 73.5794C84.8426 72.9341 87.1879 72.6114 89.8683 72.6114C92.5487 72.6114 94.894 72.9341 97.5744 73.902C96.9043 72.9341 96.5693 71.9662 96.5693 70.9982ZM96.5693 98.4225C90.8735 98.4225 86.5178 102.617 86.5178 108.102C86.5178 113.586 90.8735 117.781 96.5693 117.781C102.265 117.781 106.621 113.586 106.621 108.102C106.621 102.617 102.265 98.4225 96.5693 98.4225ZM114.997 46.8001C105.951 46.8001 96.5692 49.3812 96.5692 55.1887V60.3509C100.925 57.7698 107.291 56.4792 114.997 56.4792C122.703 56.4792 129.069 57.7698 133.424 60.3509V55.1887C133.424 49.3812 124.043 46.8001 114.997 46.8001Z" fill="#14FFEC"/>
</svg>
