<svg width="180" height="180" viewBox="0 0 180 180" fill="none" xmlns="http://www.w3.org/2000/svg">
<path fill-rule="evenodd" clip-rule="evenodd" d="M179 90C179 139.153 139.153 179 90 179C40.8466 179 1 139.153 1 90C1 40.8466 40.8466 1 90 1C139.153 1 179 40.8466 179 90ZM180 90C180 139.706 139.706 180 90 180C40.2944 180 0 139.706 0 90C0 40.2944 40.2944 0 90 0C139.706 0 180 40.2944 180 90ZM79.6816 89.5615L90.2966 62.0372C90.4892 61.7626 90.6501 61.4591 90.7723 61.13C90.8823 60.8338 90.9549 60.5329 90.9926 60.2324L92.7474 55.6824C94.8082 50.7433 100.797 49.293 104.756 52.5476C107.87 55.2188 108.248 59.8366 105.885 62.8245C105.857 62.8594 105.831 62.8946 105.804 62.9303L102.077 67.9797C101.386 68.916 101.137 70.1068 101.395 71.2415L106.131 92.082C107.201 97.1742 105.535 102.286 101.79 105.262C101.675 105.354 101.565 105.452 101.46 105.556L100.335 106.674C99.149 106.86 98.136 107.567 97.5377 108.554C94.2027 110.256 90.4646 110.509 87.128 109.416C86.4914 108.826 85.6624 108.44 84.7455 108.364C84.0617 107.977 83.4073 107.525 82.7909 107.009L82.7572 106.981C78.6813 103.646 76.9939 98.0054 78.4963 92.7844C78.7585 92.5275 78.9895 92.23 79.1792 91.8946C79.5961 91.1578 79.7538 90.345 79.6816 89.5615ZM80.7977 64.4345L81.7225 62.0367L78.6612 60.9001C76.5902 60.1311 75.5346 57.8289 76.3036 55.7579C77.0725 53.6869 79.3747 52.6314 81.4457 53.4003L84.6013 54.572L85.301 52.7578C85.3084 52.7385 85.3159 52.7194 85.3236 52.7003C85.3272 52.6916 85.3307 52.6828 85.3343 52.6741C89.383 42.841 101.651 39.5905 109.879 46.4033C109.894 46.4151 109.908 46.427 109.922 46.439C116.257 51.8338 117.24 61.3006 112.204 67.7305L109.602 71.2558L113.939 90.3393C113.944 90.3584 113.948 90.3775 113.952 90.3966C115.566 98.014 113.226 106.269 106.95 111.379L105.743 112.578C105.667 112.654 105.587 112.727 105.505 112.796C105.325 112.948 105.143 113.097 104.96 113.242V133.913C104.96 136.122 103.17 137.913 100.96 137.913C98.7512 137.913 96.9604 136.122 96.9604 133.913V117.309C94.153 118.075 91.2445 118.266 88.409 117.885V133.913C88.409 136.122 86.6182 137.913 84.409 137.913C82.1999 137.913 80.409 136.122 80.409 133.913V115.099C79.4596 114.532 78.5447 113.886 77.6738 113.158C71.309 107.939 68.6845 99.4811 70.5394 91.6022L67.6303 89.9563C65.7075 88.8685 65.0307 86.4279 66.1185 84.5052C67.2063 82.5825 69.6469 81.9056 71.5696 82.9935L73.2694 83.9552L74.1124 81.7693L71.522 80.6701C69.4883 79.8071 68.5393 77.459 69.4022 75.4254C70.2652 73.3917 72.6133 72.4427 74.6469 73.3056L76.9926 74.301L77.8878 71.9798L74.5993 70.1192C72.6765 69.0313 71.9997 66.5908 73.0875 64.6681C74.1753 62.7453 76.6159 62.0685 78.5386 63.1563L80.7977 64.4345Z" fill="#14FFEC"/>
</svg>
