<svg width="20" height="19" viewBox="0 0 20 19" fill="none" xmlns="http://www.w3.org/2000/svg">
<path fill-rule="evenodd" clip-rule="evenodd" d="M10.6678 1.98689L12.7434 5.5504L16.7739 6.42319L19.0211 6.90982L17.4891 8.62442L14.7414 11.6996L15.1568 15.8025L15.3884 18.0901L13.2843 17.1629L9.51056 15.5L5.73681 17.1629L3.63271 18.0901L3.86433 15.8025L4.27975 11.6996L1.53203 8.62442L0 6.90982L2.24725 6.42319L6.27774 5.5504L8.3533 1.98689L9.51056 0L10.6678 1.98689ZM12.3201 7.50509L15.2418 8.13779L13.25 10.367L12.6628 11.0242L12.7515 11.901L13.0527 14.8753L10.3171 13.6698L9.51056 13.3144L9.49999 13.3191V3.99191L9.51056 3.97377L11.0152 6.557L11.4587 7.31857L12.3201 7.50509Z" fill="#14FFEC"/>
</svg>
