<svg width="26" height="22" viewBox="0 0 26 22" fill="none" xmlns="http://www.w3.org/2000/svg">
<path fill-rule="evenodd" clip-rule="evenodd" d="M8.42505 5.59195L11.8379 1.00086C12.3755 0.265834 13.7131 -0.254339 14.8508 0.130137C16.0759 0.503304 16.8885 1.7472 16.626 2.85539L15.9759 6.55314C15.9259 6.89238 16.0259 7.1977 16.2384 7.43517C16.451 7.65003 16.7635 7.78572 17.101 7.78572H22.2391C23.2267 7.78572 24.0768 8.14758 24.5769 8.78083C25.0519 9.39146 25.1395 10.183 24.8269 10.9859L21.7516 19.4557C21.364 20.8579 19.6763 22 18.0011 22H13.1256C12.288 22 11.1128 21.7399 10.5753 21.2537L8.97511 20.1342C8.36254 19.7158 8 19.0486 8 18.3475V6.85846C8 6.40614 8.15002 5.96512 8.42505 5.59195ZM9 6.85846C9 6.63027 9.07521 6.39592 9.22899 6.18667L12.6405 1.59745L12.6405 1.59747L12.6451 1.59118C12.7611 1.43257 13.0317 1.22357 13.4238 1.09819C13.8051 0.976297 14.2013 0.966212 14.5306 1.0775L14.5449 1.08234L14.5594 1.08675C15.3814 1.33712 15.7707 2.12776 15.6529 2.62487L15.6462 2.65338L15.6411 2.68224L14.991 6.37999L14.9886 6.39362L14.9866 6.40731C14.8923 7.04681 15.0872 7.64833 15.4933 8.10206L15.5099 8.12066L15.5275 8.13841C15.931 8.54633 16.5009 8.78572 17.101 8.78572H22.2391C22.9945 8.78572 23.5212 9.05976 23.7898 9.39773C24.0171 9.69182 24.098 10.1018 23.895 10.6232L23.8909 10.6338L23.887 10.6446L20.8116 19.1144L20.7982 19.1514L20.7877 19.1893C20.6726 19.6056 20.3351 20.0619 19.7981 20.4259C19.2672 20.7858 18.6194 21 18.0011 21H13.1256C12.7983 21 12.3827 20.9475 11.9987 20.8438C11.591 20.7336 11.3421 20.5989 11.2461 20.512L11.1997 20.4701L11.1485 20.4343L9.54837 19.3148L9.5484 19.3147L9.53913 19.3084C9.18258 19.0649 9 18.6984 9 18.3475V6.85846ZM2.72532 6.65137H4.01297C4.90732 6.65137 5.28638 6.81664 5.44906 6.95699C5.57413 7.06489 5.73828 7.30503 5.73828 8.00345V19.3794C5.73828 20.0778 5.57413 20.318 5.44906 20.4259C5.28638 20.5662 4.90732 20.7315 4.01297 20.7315H2.72532C1.83096 20.7315 1.4519 20.5662 1.28922 20.4259C1.16415 20.318 1 20.0778 1 19.3794V8.00345C1 7.30503 1.16415 7.06489 1.28922 6.95699C1.4519 6.81664 1.83096 6.65137 2.72532 6.65137ZM4.01297 5.65137H2.72532C0.787591 5.65137 0 6.32985 0 8.00345V19.3794C0 21.053 0.787591 21.7315 2.72532 21.7315H4.01297C5.95069 21.7315 6.73828 21.053 6.73828 19.3794V8.00345C6.73828 6.32985 5.95069 5.65137 4.01297 5.65137Z" fill="#14FFEC"/>
</svg>
