<svg width="581" height="202" viewBox="0 0 581 202" fill="none" xmlns="http://www.w3.org/2000/svg">
<path fill-rule="evenodd" clip-rule="evenodd" d="M285.646 4.87451C285.646 2.18239 283.464 0 280.772 0C278.08 0 275.897 2.18239 275.897 4.87451V95.9515V96.4465H275.901C275.963 100.633 276.804 104.772 278.383 108.643C280.025 112.666 282.43 116.322 285.463 119.402C288.496 122.481 292.096 124.924 296.059 126.591C300.021 128.258 304.268 129.115 308.557 129.115C312.846 129.115 317.092 128.258 321.055 126.591C325.017 124.924 328.618 122.481 331.65 119.402C334.683 116.322 337.089 112.666 338.73 108.643C340.27 104.867 341.109 100.836 341.206 96.7545C341.213 96.6526 341.216 96.5499 341.216 96.4465V95.9515C341.216 93.2594 339.034 91.077 336.341 91.077C333.649 91.077 331.467 93.2594 331.467 95.9515C331.467 99.047 330.866 102.109 329.703 104.961C328.54 107.812 326.839 110.394 324.704 112.561C322.57 114.729 320.044 116.44 317.275 117.604C314.506 118.769 311.544 119.366 308.557 119.366C305.569 119.366 302.607 118.769 299.838 117.604C297.069 116.44 294.544 114.729 292.409 112.561C290.275 110.394 288.574 107.812 287.41 104.961C286.247 102.109 285.646 99.047 285.646 95.9515V4.87451ZM84.7191 0.878336C82.6092 -0.567066 79.8512 0.0503531 78.559 2.25738C78.2357 2.80955 78.0347 3.40891 77.9482 4.01991C77.8183 4.44691 77.7485 4.90004 77.7485 5.36949L77.7485 75.8574C72.193 70.2281 64.5253 66.7475 56.0569 66.7475C39.0966 66.7475 25.3475 80.709 25.3475 97.9314C25.3475 115.154 39.0966 129.115 56.0569 129.115C72.6745 129.115 86.2093 115.712 86.7496 98.9715C86.9183 98.4911 87.0101 97.9745 87.0101 97.4365L87.0101 13.6459L123.91 38.9245C124.066 39.0315 124.226 39.1272 124.388 39.2118C125.772 40.071 127.569 40.0821 129.055 39.0778L166.708 13.6152V97.4365C166.708 97.6035 166.717 97.7687 166.733 97.9314H166.708C166.708 103.664 164.464 109.132 160.517 113.141C156.574 117.145 151.258 119.366 145.748 119.366C140.237 119.366 134.922 117.145 130.979 113.141C127.032 109.132 124.788 103.664 124.788 97.9314C124.788 95.2393 122.605 93.0569 119.913 93.0569C117.221 93.0569 115.039 95.2393 115.039 97.9314V98.4264H115.042C115.169 106.518 118.389 114.251 124.033 119.982C129.792 125.83 137.603 129.115 145.748 129.115C153.892 129.115 161.704 125.83 167.463 119.982C173.222 114.134 176.457 106.202 176.457 97.9314H176.433C176.449 97.7687 176.457 97.6035 176.457 97.4365V5.36949C176.457 2.67737 174.275 0.494978 171.583 0.494978C171.174 0.494978 170.777 0.545305 170.398 0.640102C169.676 0.699244 168.952 0.945133 168.291 1.39257L126.612 29.5772L84.7191 0.878336ZM56.0569 119.854C67.7688 119.854 77.5048 110.173 77.5048 97.9314C77.5048 85.6896 67.7688 76.009 56.0569 76.009C44.345 76.009 34.609 85.6896 34.609 97.9314C34.609 110.173 44.345 119.854 56.0569 119.854ZM193.518 95.9566C193.519 100.016 194.253 104.072 195.718 107.916C198.504 115.231 203.753 121.306 210.532 125.063C217.312 128.82 225.183 130.015 232.748 128.437C240.314 126.859 247.083 122.61 251.856 116.444L251.85 116.439L251.862 116.423L251.881 116.396C251.897 116.374 251.912 116.352 251.928 116.33C251.95 116.298 251.972 116.265 251.993 116.233L252.968 114.748C254.445 112.497 253.836 109.45 251.607 107.94C249.377 106.431 246.372 107.032 244.895 109.283L243.932 110.749C240.58 114.95 235.919 117.817 230.758 118.894C225.488 119.993 219.999 119.163 215.258 116.535C210.513 113.906 206.804 109.633 204.828 104.446C204.378 103.264 204.025 102.053 203.769 100.826H253.962C256.654 100.826 258.837 98.6436 258.837 95.9515C258.837 88.1088 256.1 80.52 251.112 74.5325C246.123 68.5449 239.207 64.5462 231.591 63.2463C223.974 61.9464 216.151 63.4294 209.509 67.4321C202.867 71.4347 197.838 77.6979 195.313 85.1097C194.116 88.6227 193.519 92.286 193.518 95.9468V95.9566ZM248.586 91.077H203.769C203.968 90.1246 204.225 89.1816 204.541 88.2534C206.332 82.9944 209.889 78.5857 214.541 75.782C219.189 72.9806 224.646 71.9511 229.951 72.8564C235.256 73.762 240.106 76.5525 243.621 80.7726C246.099 83.7463 247.797 87.2919 248.586 91.077ZM390.936 119.854C403.725 119.854 414.334 109.287 414.334 95.9515C414.334 82.6162 403.725 72.0492 390.936 72.0492C378.147 72.0492 367.538 82.6162 367.538 95.9515C367.538 109.287 378.147 119.854 390.936 119.854ZM390.936 129.115C408.973 129.115 423.595 114.267 423.595 95.9515C423.595 77.6356 408.973 62.7876 390.936 62.7876C372.899 62.7876 358.277 77.6356 358.277 95.9515C358.277 114.267 372.899 129.115 390.936 129.115ZM496.713 95.9515C496.713 109.287 486.104 119.854 473.315 119.854C460.526 119.854 449.918 109.287 449.918 95.9515C449.918 82.6162 460.526 72.0492 473.315 72.0492C486.104 72.0492 496.713 82.6162 496.713 95.9515ZM505.974 95.9515C505.974 114.267 491.352 129.115 473.315 129.115C455.278 129.115 440.656 114.267 440.656 95.9515C440.656 77.6356 455.278 62.7876 473.315 62.7876C482.365 62.7876 490.554 66.525 496.469 72.5625V5.3695C496.469 2.81199 498.542 0.738711 501.1 0.738712C503.657 0.738712 505.731 2.81199 505.731 5.3695V91.8796C505.892 93.214 505.974 94.5729 505.974 95.9515ZM564.323 113.046C568.035 108.728 570.318 102.596 570.318 95.9515V71.6973C570.318 69.0052 572.5 66.8228 575.193 66.8228C577.885 66.8228 580.067 69.0052 580.067 71.6973V95.9515V125.651C580.067 130.006 579.222 134.318 577.581 138.342C575.94 142.365 573.534 146.021 570.501 149.101C567.469 152.18 563.868 154.623 559.906 156.29C555.944 157.957 551.697 158.814 547.408 158.814V158.664H32.6592V158.814C28.3704 158.814 24.1235 157.957 20.1611 156.29C16.1987 154.623 12.5984 152.18 9.56566 149.101C6.53298 146.021 4.12732 142.365 2.48603 138.342C0.906961 134.471 0.0651766 130.332 0.00363761 126.145H0V125.651V114.761C0 112.069 2.18239 109.886 4.87451 109.886C7.56663 109.886 9.74903 112.069 9.74903 114.761V125.651C9.74903 128.746 10.3496 131.808 11.5129 134.66C12.6762 137.511 14.3772 140.093 16.5119 142.26C18.6463 144.428 21.172 146.139 23.9409 147.304C26.7095 148.468 29.6715 149.065 32.6592 149.065V148.915H547.408V149.065C550.395 149.065 553.358 148.468 556.126 147.304C558.895 146.139 561.421 144.428 563.555 142.26C565.69 140.093 567.391 137.511 568.554 134.66C569.717 131.808 570.318 128.746 570.318 125.651V120.921C565.137 126.189 558.473 129.115 551.551 129.115C543.99 129.115 536.737 125.623 531.387 119.402C526.04 113.183 523.035 104.748 523.035 95.9515V71.6973C523.035 69.0052 525.218 66.8228 527.91 66.8228C530.602 66.8228 532.784 69.0052 532.784 71.6973V95.9515C532.784 102.596 535.067 108.728 538.779 113.046C542.451 117.316 547.088 119.366 551.551 119.366C556.015 119.366 560.651 117.316 564.323 113.046Z" fill="white"/>
<path d="M428.877 193.93V189.746L428.769 189.061V182.063C428.769 180.452 428.312 179.213 427.398 178.347C426.508 177.482 425.174 177.049 423.394 177.049C422.168 177.049 421.001 177.253 419.895 177.662C418.789 178.071 417.851 178.612 417.082 179.285L415.927 177.374C416.889 176.556 418.044 175.931 419.39 175.498C420.737 175.041 422.156 174.812 423.647 174.812C426.099 174.812 427.987 175.426 429.31 176.652C430.657 177.855 431.33 179.694 431.33 182.171V193.93H428.877ZM422.348 194.111C420.929 194.111 419.691 193.882 418.633 193.425C417.599 192.944 416.805 192.295 416.252 191.477C415.699 190.636 415.422 189.674 415.422 188.592C415.422 187.606 415.651 186.716 416.108 185.922C416.589 185.105 417.358 184.456 418.416 183.975C419.498 183.47 420.941 183.217 422.745 183.217H429.274V185.129H422.817C420.989 185.129 419.715 185.454 418.993 186.103C418.296 186.752 417.947 187.558 417.947 188.52C417.947 189.602 418.368 190.467 419.21 191.117C420.052 191.766 421.23 192.091 422.745 192.091C424.188 192.091 425.426 191.766 426.46 191.117C427.518 190.443 428.288 189.482 428.769 188.231L429.346 189.999C428.865 191.249 428.023 192.247 426.821 192.992C425.643 193.738 424.152 194.111 422.348 194.111Z" fill="white"/>
<path d="M446.15 194.111C444.274 194.111 442.591 193.702 441.1 192.884C439.633 192.043 438.478 190.9 437.637 189.457C436.795 187.991 436.374 186.319 436.374 184.444C436.374 182.544 436.795 180.872 437.637 179.43C438.478 177.987 439.633 176.857 441.1 176.039C442.591 175.221 444.274 174.812 446.15 174.812C447.761 174.812 449.216 175.125 450.514 175.75C451.813 176.376 452.835 177.313 453.58 178.564L451.668 179.862C451.019 178.901 450.214 178.191 449.252 177.734C448.29 177.277 447.244 177.049 446.113 177.049C444.767 177.049 443.552 177.362 442.47 177.987C441.388 178.588 440.534 179.442 439.909 180.548C439.284 181.654 438.971 182.953 438.971 184.444C438.971 185.934 439.284 187.233 439.909 188.339C440.534 189.445 441.388 190.311 442.47 190.936C443.552 191.538 444.767 191.838 446.113 191.838C447.244 191.838 448.29 191.61 449.252 191.153C450.214 190.696 451.019 189.999 451.668 189.061L453.58 190.359C452.835 191.586 451.813 192.524 450.514 193.173C449.216 193.798 447.761 194.111 446.15 194.111Z" fill="white"/>
<path d="M470.479 193.93V189.746L470.371 189.061V182.063C470.371 180.452 469.914 179.213 469 178.347C468.11 177.482 466.776 177.049 464.996 177.049C463.77 177.049 462.603 177.253 461.497 177.662C460.391 178.071 459.453 178.612 458.684 179.285L457.529 177.374C458.491 176.556 459.645 175.931 460.992 175.498C462.339 175.041 463.758 174.812 465.249 174.812C467.701 174.812 469.589 175.426 470.912 176.652C472.258 177.855 472.932 179.694 472.932 182.171V193.93H470.479ZM463.95 194.111C462.531 194.111 461.293 193.882 460.235 193.425C459.201 192.944 458.407 192.295 457.854 191.477C457.301 190.636 457.024 189.674 457.024 188.592C457.024 187.606 457.253 186.716 457.71 185.922C458.191 185.105 458.96 184.456 460.018 183.975C461.1 183.47 462.543 183.217 464.347 183.217H470.876V185.129H464.419C462.591 185.129 461.317 185.454 460.595 186.103C459.898 186.752 459.549 187.558 459.549 188.52C459.549 189.602 459.97 190.467 460.812 191.117C461.653 191.766 462.832 192.091 464.347 192.091C465.79 192.091 467.028 191.766 468.062 191.117C469.12 190.443 469.89 189.482 470.371 188.231L470.948 189.999C470.467 191.249 469.625 192.247 468.423 192.992C467.244 193.738 465.754 194.111 463.95 194.111Z" fill="white"/>
<path d="M487.427 194.111C485.623 194.111 484 193.702 482.557 192.884C481.138 192.067 480.02 190.936 479.203 189.494C478.385 188.027 477.976 186.343 477.976 184.444C477.976 182.52 478.385 180.836 479.203 179.394C480.02 177.951 481.138 176.832 482.557 176.039C484 175.221 485.623 174.812 487.427 174.812C489.086 174.812 490.565 175.185 491.864 175.931C493.186 176.676 494.232 177.77 495.002 179.213C495.795 180.632 496.192 182.375 496.192 184.444C496.192 186.488 495.807 188.231 495.038 189.674C494.268 191.117 493.222 192.223 491.9 192.992C490.601 193.738 489.11 194.111 487.427 194.111ZM487.607 191.838C488.954 191.838 490.156 191.538 491.214 190.936C492.296 190.311 493.138 189.445 493.739 188.339C494.365 187.209 494.677 185.91 494.677 184.444C494.677 182.953 494.365 181.654 493.739 180.548C493.138 179.442 492.296 178.588 491.214 177.987C490.156 177.362 488.954 177.049 487.607 177.049C486.285 177.049 485.094 177.362 484.036 177.987C482.978 178.588 482.136 179.442 481.511 180.548C480.886 181.654 480.573 182.953 480.573 184.444C480.573 185.91 480.886 187.209 481.511 188.339C482.136 189.445 482.978 190.311 484.036 190.936C485.094 191.538 486.285 191.838 487.607 191.838ZM494.749 193.93V188.231L495.002 184.407L494.641 180.584V167.165H497.202V193.93H494.749Z" fill="white"/>
<path d="M512.379 194.111C510.407 194.111 508.675 193.702 507.184 192.884C505.693 192.043 504.527 190.9 503.685 189.457C502.844 187.991 502.423 186.319 502.423 184.444C502.423 182.568 502.82 180.909 503.613 179.466C504.431 178.023 505.537 176.893 506.932 176.075C508.351 175.233 509.938 174.812 511.693 174.812C513.473 174.812 515.048 175.221 516.419 176.039C517.813 176.832 518.908 177.963 519.701 179.43C520.495 180.872 520.891 182.544 520.891 184.444C520.891 184.564 520.879 184.696 520.855 184.84C520.855 184.961 520.855 185.093 520.855 185.237H504.371V183.325H519.485L518.475 184.083C518.475 182.712 518.174 181.498 517.573 180.44C516.996 179.357 516.202 178.516 515.192 177.915C514.182 177.313 513.016 177.013 511.693 177.013C510.395 177.013 509.228 177.313 508.194 177.915C507.16 178.516 506.355 179.357 505.778 180.44C505.2 181.522 504.912 182.76 504.912 184.155V184.552C504.912 185.995 505.224 187.269 505.85 188.375C506.499 189.457 507.389 190.311 508.519 190.936C509.673 191.538 510.984 191.838 512.451 191.838C513.605 191.838 514.675 191.634 515.661 191.225C516.671 190.816 517.537 190.191 518.258 189.349L519.701 191.009C518.859 192.019 517.801 192.788 516.527 193.317C515.276 193.846 513.894 194.111 512.379 194.111Z" fill="white"/>
<path d="M549.767 174.812C551.306 174.812 552.641 175.113 553.771 175.714C554.925 176.291 555.815 177.181 556.44 178.384C557.09 179.586 557.414 181.101 557.414 182.929V193.93H554.853V183.181C554.853 181.185 554.372 179.682 553.41 178.672C552.473 177.638 551.138 177.121 549.406 177.121C548.108 177.121 546.978 177.398 546.016 177.951C545.078 178.48 544.344 179.261 543.815 180.295C543.31 181.305 543.058 182.532 543.058 183.975V193.93H540.497V183.181C540.497 181.185 540.016 179.682 539.054 178.672C538.092 177.638 536.745 177.121 535.014 177.121C533.739 177.121 532.621 177.398 531.659 177.951C530.697 178.48 529.952 179.261 529.423 180.295C528.918 181.305 528.665 182.532 528.665 183.975V193.93H526.104V174.993H528.557V180.115L528.16 179.213C528.738 177.842 529.663 176.772 530.938 176.003C532.236 175.209 533.763 174.812 535.519 174.812C537.371 174.812 538.946 175.281 540.244 176.219C541.543 177.133 542.385 178.516 542.769 180.367L541.759 179.971C542.312 178.432 543.286 177.193 544.681 176.255C546.1 175.293 547.795 174.812 549.767 174.812Z" fill="white"/>
<path d="M564.152 201.109C563.262 201.109 562.408 200.964 561.591 200.676C560.797 200.387 560.112 199.954 559.535 199.377L560.725 197.465C561.206 197.922 561.723 198.271 562.276 198.511C562.853 198.776 563.49 198.908 564.188 198.908C565.03 198.908 565.751 198.668 566.352 198.187C566.977 197.73 567.567 196.912 568.12 195.734L569.346 192.956L569.635 192.56L577.426 174.993H579.951L570.464 196.203C569.935 197.429 569.346 198.403 568.697 199.125C568.072 199.846 567.386 200.351 566.641 200.64C565.895 200.952 565.066 201.109 564.152 201.109ZM569.202 194.471L560.472 174.993H563.142L570.861 192.379L569.202 194.471Z" fill="white"/>
</svg>
