<svg width="180" height="180" viewBox="0 0 180 180" fill="none" xmlns="http://www.w3.org/2000/svg">
<path fill-rule="evenodd" clip-rule="evenodd" d="M179 90C179 139.153 139.153 179 90 179C40.8467 179 1 139.153 1 90C1 40.8467 40.8467 1 90 1C139.153 1 179 40.8467 179 90ZM180 90C180 139.706 139.706 180 90 180C40.2944 180 0 139.706 0 90C0 40.2944 40.2944 0 90 0C139.706 0 180 40.2944 180 90ZM48.8379 131.68C46.0319 128.693 46.127 124.058 49.1019 121.165L72.0909 91.56C76.2405 99.2668 83.1987 105.336 91.6378 108.48L59.9325 131.68C56.955 134.565 52.1824 134.657 49.1019 131.934L48.9673 131.808L48.8379 131.68ZM104.878 103.166C88.8423 103.166 75.8419 90.5454 75.8419 74.9831C75.8419 59.4182 88.8423 46.7998 104.878 46.7998C120.914 46.7998 133.912 59.4182 133.912 74.9831C133.912 90.5454 120.914 103.166 104.878 103.166Z" fill="#14FFEC"/>
</svg>
