<svg width="80" height="80" viewBox="0 0 80 80" fill="none" xmlns="http://www.w3.org/2000/svg">
<path fill-rule="evenodd" clip-rule="evenodd" d="M40 0C17.908 0 0 17.908 0 40C0 62.092 17.908 80 40 80C62.092 80 80 62.092 80 40C80 17.908 62.092 0 40 0ZM1.76039 40C1.76039 18.8803 18.8803 1.76039 40 1.76039C61.1197 1.76039 78.2396 18.8803 78.2396 40C78.2396 61.1197 61.1197 78.2396 40 78.2396C18.8803 78.2396 1.76039 61.1197 1.76039 40ZM35.6943 25.5692C35.351 25.225 34.7937 25.2242 34.4495 25.5674C34.1053 25.9107 34.1045 26.468 34.4477 26.8122L47.5982 40L34.4477 53.1878C34.1045 53.532 34.1053 54.0893 34.4495 54.4325C34.7937 54.7758 35.351 54.775 35.6943 54.4308L49.4645 40.6215C49.807 40.278 49.807 39.722 49.4645 39.3785L35.6943 25.5692Z" fill="#14FFEC"/>
</svg>
