<svg width="180" height="180" viewBox="0 0 180 180" fill="none" xmlns="http://www.w3.org/2000/svg">
<path fill-rule="evenodd" clip-rule="evenodd" d="M90 179C139.153 179 179 139.153 179 90C179 40.8467 139.153 1 90 1C40.8467 1 1 40.8467 1 90C1 139.153 40.8467 179 90 179ZM90 180C139.706 180 180 139.706 180 90C180 40.2944 139.706 0 90 0C40.2944 0 0 40.2944 0 90C0 139.706 40.2944 180 90 180ZM49.1875 50.625C49.1875 49.8311 49.8311 49.1875 50.625 49.1875H59.9375V97.875C59.9375 99.2557 61.0568 100.375 62.4375 100.375H69.7812V130.812H50.625C49.8311 130.812 49.1875 130.169 49.1875 129.375V50.625ZM50.625 44.1875H62.4375H82.125H97.875H117.562H129.375C132.93 44.1875 135.812 47.0697 135.812 50.625V129.375C135.812 132.93 132.93 135.812 129.375 135.812H107.719H72.2812H50.625C47.0697 135.812 44.1875 132.93 44.1875 129.375V50.625C44.1875 47.0697 47.0697 44.1875 50.625 44.1875ZM64.9375 95.375V49.1875H79.625V95.375H72.2812H64.9375ZM84.625 97.875V49.1875H95.375V97.875C95.375 99.2557 96.4943 100.375 97.875 100.375H105.219V130.812H74.7812V100.375H82.125C83.5057 100.375 84.625 99.2557 84.625 97.875ZM110.219 100.375V130.812H129.375C130.169 130.812 130.812 130.169 130.812 129.375V50.625C130.812 49.8311 130.169 49.1875 129.375 49.1875H120.062V97.875C120.062 99.2557 118.943 100.375 117.562 100.375H110.219ZM115.062 49.1875V95.375H107.719H100.375V49.1875H115.062Z" fill="#14FFEC"/>
</svg>
