<svg width="80" height="80" viewBox="0 0 80 80" fill="none" xmlns="http://www.w3.org/2000/svg">
<path fill-rule="evenodd" clip-rule="evenodd" d="M40 80C62.092 80 80 62.092 80 40C80 17.908 62.092 2.43231e-06 40 5.00972e-07C17.908 -1.43037e-06 1.30004e-06 17.908 -6.31306e-07 40C-2.56265e-06 62.092 17.908 80 40 80ZM78.2396 40C78.2396 61.1197 61.1197 78.2396 40 78.2396C18.8802 78.2396 1.76039 61.1197 1.76039 40C1.76039 18.8802 18.8803 1.76039 40 1.76039C61.1198 1.76039 78.2396 18.8803 78.2396 40ZM44.3058 54.4308C44.6491 54.775 45.2064 54.7758 45.5506 54.4326C45.8948 54.0893 45.8956 53.532 45.5524 53.1878L32.4019 40L45.5524 26.8122C45.8956 26.468 45.8948 25.9107 45.5506 25.5675C45.2064 25.2242 44.6491 25.225 44.3058 25.5692L30.5356 39.3785C30.1931 39.722 30.1931 40.278 30.5356 40.6215L44.3058 54.4308Z" fill="#14FFEC"/>
</svg>
