<svg width="28" height="28" viewBox="0 0 28 28" fill="none" xmlns="http://www.w3.org/2000/svg">
<path d="M14 0C6.26613 0 0 6.07031 0 13.5625C0 21.0547 6.26613 27.125 14 27.125C21.7339 27.125 28 21.0547 28 13.5625C28 6.07031 21.7339 0 14 0ZM20.8758 9.29141L18.5782 19.7805C18.4089 20.5242 17.9516 20.7047 17.3137 20.3547L13.8137 17.8555L12.1258 19.4305C11.9395 19.6109 11.7815 19.7641 11.4202 19.7641L11.6685 16.3133L18.1548 10.6367C18.4371 10.3961 18.0927 10.2594 17.7202 10.5L9.70403 15.3891L6.24919 14.3445C5.49839 14.1148 5.48145 13.6172 6.40726 13.2672L19.9048 8.225C20.5315 8.00625 21.079 8.37266 20.8758 9.29141Z" fill="#14FFEC"/>
</svg>
