<svg width="28" height="28" viewBox="0 0 28 28" fill="none" xmlns="http://www.w3.org/2000/svg">
<path d="M14 0C6.26801 0 0 6.26801 0 14C0 21.732 6.26801 28 14 28C21.732 28 28 21.732 28 14C28 6.26801 21.732 0 14 0ZM21.0886 12.7084C19.602 12.7084 18.1555 12.2259 17.0417 11.4096L17.0329 16.9603C17.0319 17.9889 16.7174 18.9927 16.1311 19.8378C15.5449 20.6829 14.7148 21.3291 13.7518 21.6902C12.7887 22.0513 11.7384 22.1101 10.7411 21.8588C9.74372 21.6074 8.84673 21.0579 8.16981 20.2835C7.49289 19.5092 7.06822 18.5468 6.95249 17.5248C6.83675 16.5027 7.03545 15.4698 7.52207 14.5636C8.00868 13.6575 8.76007 12.9213 9.67597 12.4533C10.5919 11.9853 11.6287 11.8078 12.6481 11.9444V14.6703C12.1672 14.5282 11.6538 14.5411 11.1807 14.7073C10.7076 14.8734 10.2988 15.1842 10.0123 15.5957C9.72581 16.0073 9.57614 16.4985 9.58454 16.9999C9.59293 17.5013 9.75897 17.9872 10.0591 18.3889C10.3592 18.7906 10.7782 19.0876 11.2566 19.2378C11.735 19.388 12.2486 19.3837 12.7244 19.2256C13.2003 19.0676 13.6143 18.7637 13.9077 18.357C14.2011 17.9504 14.3591 17.4618 14.3592 16.9603V5.97915H17.1633C17.1633 6.4946 17.2648 7.00501 17.4621 7.48123C17.6593 7.95744 17.9485 8.39014 18.3129 8.75462C18.6774 9.1191 19.1101 9.40822 19.5863 9.60547C20.0626 9.80272 20.573 9.90424 21.0884 9.90423L21.0886 12.7084Z" fill="#14FFEC"/>
</svg>
