<svg width="28" height="28" viewBox="0 0 28 28" fill="none" xmlns="http://www.w3.org/2000/svg">
<path fill-rule="evenodd" clip-rule="evenodd" d="M28 14C28 21.732 21.732 28 14 28C6.26801 28 0 21.732 0 14C0 6.26801 6.26801 0 14 0C21.732 0 28 6.26801 28 14ZM14.9346 19.8256H13.8013C13.8013 19.8256 11.3035 19.9655 9.08757 17.8668C6.68561 15.5711 4.56557 11.0108 4.56557 11.0108C4.56557 11.0108 4.44716 10.7102 4.57684 10.5651C4.72908 10.4045 5.13505 10.3941 5.13505 10.3941L7.84148 10.3786C7.84148 10.3786 8.09521 10.4149 8.28128 10.5392C8.43351 10.6377 8.51809 10.8294 8.51809 10.8294C8.51809 10.8294 8.95225 11.8451 9.533 12.7675C10.6607 14.5606 11.1907 14.9544 11.5741 14.7627C12.1379 14.4828 11.9688 12.2234 11.9688 12.2234C11.9688 12.2234 11.9801 11.3995 11.6869 11.0367C11.4613 10.7569 11.0328 10.6688 10.8468 10.6481C10.6945 10.6325 10.9482 10.306 11.2696 10.1609C11.7602 9.9381 12.6229 9.92774 13.6378 9.9381C14.4328 9.94328 14.6583 9.98992 14.9684 10.0573C15.6848 10.2169 15.6623 10.7298 15.6141 11.8326C15.5997 12.1621 15.583 12.5442 15.583 12.9852C15.583 13.0867 15.5797 13.1948 15.5762 13.3058C15.5587 13.8696 15.5388 14.5099 15.9439 14.7523C16.1525 14.8715 16.66 14.7678 17.9286 12.7883C18.5319 11.8503 18.983 10.7465 18.983 10.7465C18.983 10.7465 19.0845 10.5496 19.2367 10.4667C19.3946 10.3838 19.6032 10.4097 19.6032 10.4097L22.4562 10.3941C22.4562 10.3941 23.3076 10.2957 23.4486 10.6532C23.5952 11.0263 23.1328 11.8969 21.9657 13.322C20.8641 14.672 20.3281 15.1716 20.3749 15.6116C20.4094 15.935 20.7588 16.2262 21.43 16.7992C22.8361 17.9955 23.2101 18.6261 23.2976 18.7736C23.3045 18.7852 23.3096 18.7939 23.3133 18.7995C23.9448 19.7582 22.6197 19.8308 22.6197 19.8308L20.0881 19.8619C20.0881 19.8619 19.5468 19.9603 18.8307 19.5095C18.4571 19.2724 18.0914 18.8878 17.743 18.5213C17.2079 17.9586 16.7135 17.4386 16.2935 17.561C15.5887 17.7631 15.6112 19.1623 15.6112 19.1623C15.6112 19.1623 15.6168 19.4577 15.4533 19.6183C15.2785 19.7893 14.9346 19.8256 14.9346 19.8256Z" fill="#14FFEC"/>
</svg>
