<svg width="180" height="180" viewBox="0 0 180 180" fill="none" xmlns="http://www.w3.org/2000/svg">
<path fill-rule="evenodd" clip-rule="evenodd" d="M90 179.006C139.156 179.006 179.005 139.156 179.005 90C179.005 40.8435 139.156 0.994385 90 0.994385C40.8436 0.994385 0.994507 40.8435 0.994507 90C0.994507 139.156 40.8436 179.006 90 179.006ZM90 180C139.706 180 180 139.706 180 90C180 40.2944 139.706 0 90 0C40.2944 0 0 40.2944 0 90C0 139.706 40.2944 180 90 180ZM100.625 99.4375C97.8125 96.625 95.9375 93.8125 94.375 90.6875C94.3353 90.9653 94.2957 91.2383 94.2566 91.5066C93.9882 93.3513 93.75 94.9883 93.75 96.625V108.5C93.75 110.375 92.5 111.625 90.625 111.625C88.75 111.625 87.5 110.375 87.5 108.5V105.375H81.25C79.375 105.375 78.125 104.125 78.125 102.25C78.125 100.375 79.375 99.125 81.25 99.125H87.5V96H81.25C79.375 96 78.125 94.75 78.125 92.875C78.125 91 79.375 89.75 81.25 89.75H87.5V86.625H81.25C79.375 86.625 78.125 85.375 78.125 83.5C78.125 81.625 79.375 80.375 81.25 80.375H87.5V77.25H81.25C79.375 77.25 78.125 76 78.125 74.125C78.125 72.25 79.375 71 81.25 71H87.5V67.25C87.5 55.375 78.125 46 66.25 46H53.125C51.25 46 50 47.25 50 49.125C50 51 51.25 52.25 53.125 52.25H54.6875L58.125 57.5625C59.6875 60.0625 62.8125 61.625 65.625 61.625C67.1875 61.625 68.75 62.875 68.75 64.75V107.875C68.75 121.938 80.3125 133.5 94.375 133.5C107.812 133.5 118.75 122.562 118.75 109.125V107.875C112.5 107.875 105.938 104.75 100.625 99.4375ZM119.062 101.938C114.688 101.938 109.375 99.75 105 95.375C97.8125 88.1875 96.25 79.125 101.25 74.125C106.25 69.125 115.312 71 122.5 77.875C129.688 85.0625 131.25 94.125 126.25 99.125C124.375 101 121.875 101.938 119.062 101.938Z" fill="#14FFEC"/>
</svg>
