<svg width="28" height="28" viewBox="0 0 28 28" fill="none" xmlns="http://www.w3.org/2000/svg">
<path fill-rule="evenodd" clip-rule="evenodd" d="M14 0C21.7268 0 28 6.2732 28 14C28 21.7268 21.7268 28 14 28C6.2732 28 0 21.7268 0 14C0 6.2732 6.2732 0 14 0ZM22.3844 9.78786C22.1832 9.03487 21.5902 8.442 20.8373 8.24075C19.4724 7.875 14 7.875 14 7.875C14 7.875 8.52759 7.875 7.1627 8.24075C6.40992 8.442 5.81684 9.03487 5.61559 9.78786C5.25 11.1526 5.25 14.0001 5.25 14.0001C5.25 14.0001 5.25 16.8475 5.61559 18.2121C5.81684 18.9651 6.40992 19.5582 7.1627 19.7594C8.52759 20.125 14 20.125 14 20.125C14 20.125 19.4724 20.125 20.8373 19.7594C21.5902 19.5582 22.1832 18.9651 22.3844 18.2121C22.75 16.8475 22.75 14.0001 22.75 14.0001C22.75 14.0001 22.75 11.1526 22.3844 9.78786ZM12.2499 16.6252V11.3751L16.7965 14.0001L12.2499 16.6252Z" fill="#14FFEC"/>
</svg>
